Coordinates
version=1
nRows=12
nColumns=53
inDegrees=yes

Units are S.I. units (second, meters, Newtons, ...)
If the header above contains a line with 'inDegrees', this indicates whether rotational values are in degrees (yes) or radians (no).

endheader
time	pelvis_tilt	pelvis_list	pelvis_rot	pelvis_tx	pelvis_ty	pelvis_tz	hip_flex_r	hip_add_r	hip_rot_r	pf_flex_r	pf_rot_r	pf_tilt_r	pf_tx_r	pf_ty_r	pf_tz_r	knee_flex_r	knee_add_r	knee_rot_r	knee_tx_r	knee_ty_r	knee_tz_r	ankle_flex_r	subt_angle_r	mtp_angle_r	hip_flex_l	hip_add_l	hip_rot_l	pf_l_r3	pf_l_tx	pf_l_ty	knee_flex_l	ankle_flex_l	subt_angle_l	mtp_angle_l	lumbar_ext	lumbar_latbend	lumbar_rot	neck_ext	neck_latbend	neck_rot	arm_add_r	arm_flex_r	arm_rot_r	elbow_flex_r	pro_sup_r	wrist_flex_r	arm_add_l	arm_flex_l	arm_rot_l	elbow_flex_l	pro_sup_l	wrist_flex_l
      5.50000000	    -10.84317247	     -2.21924971	      8.46208653	      1.08166324	      0.87429353	      0.21724074	     11.31885375	      0.13812262	    -12.21935907	      0.00000000	      0.00000000	      0.00000000	      0.00092502	      0.00008727	      0.00006981	      5.61832548	      0.00002434	      0.00008853	     -0.00000156	     -0.00001173	     -0.00000198	      9.19038975	     -2.59512231	      0.00000000	     12.97487975	     -0.94260720	     -7.64960520	      0.06513700	      0.00077405	     -0.00730790	      0.05641976	      0.04027485	     -0.19753226	      0.00000000	      5.76422734	      0.19022698	    -12.44202308	      0.00000000	      0.00000000	      0.00000000	      0.00000000	      0.00000000	      0.00000000	      0.00000000	     60.00000000	      0.00000000	      0.00000000	      0.00000000	      0.00000000	      0.00000000	     60.00000000	      0.00000000
      5.50400000	    -10.80595752	     -2.21045731	      8.46759004	      1.08172069	      0.87435037	      0.21724071	     11.26187854	      0.13547395	    -12.24465233	      0.00000000	      0.00000000	      0.00000000	      0.00092502	      0.00008727	      0.00006981	      5.59854076	      0.00002363	      0.00008913	     -0.00000154	     -0.00001174	     -0.00000199	      9.22497178	     -2.61050227	      0.00000000	     12.90713908	     -0.93463233	     -7.23233757	      0.06513700	      0.00077405	     -0.00730790	      0.05498872	      0.04170936	     -0.18896336	      0.00000000	      5.72611835	      0.18300268	    -12.43220093	      0.00000000	      0.00000000	      0.00000000	      0.00000000	      0.00000000	      0.00000000	      0.00000000	     60.00000000	      0.00000000	      0.00000000	      0.00000000	      0.00000000	      0.00000000	     60.00000000	      0.00000000
      5.50800000	    -10.80858437	     -2.21465785	      8.47351306	      1.08171265	      0.87434635	      0.21724078	     11.26803946	      0.13879739	    -12.23804828	      0.00000000	      0.00000000	      0.00000000	      0.00092502	      0.00008727	      0.00006981	      5.60465974	      0.00002413	      0.00008873	     -0.00000154	     -0.00001175	     -0.00000198	      9.21371176	     -2.60511116	      0.00000000	     12.90721864	     -0.93166834	     -7.18344862	      0.06513700	      0.00077405	     -0.00730790	      0.05467894	      0.04197102	     -0.18919205	      0.00000000	      5.73091890	      0.18629273	    -12.45379783	      0.00000000	      0.00000000	      0.00000000	      0.00000000	      0.00000000	      0.00000000	      0.00000000	     60.00000000	      0.00000000	      0.00000000	      0.00000000	      0.00000000	      0.00000000	     60.00000000	      0.00000000
      5.51200000	    -10.80944858	     -2.21253175	      8.47024944	      1.08170009	      0.87434737	      0.21722063	     11.26852307	      0.13414223	    -12.23742118	      0.00000000	      0.00000000	      0.00000000	      0.00092502	      0.00008727	      0.00006981	      5.60216512	      0.00002445	      0.00008924	     -0.00000156	     -0.00001175	     -0.00000199	      9.21298719	     -2.60454913	      0.00000000	     12.90887597	     -0.93660620	     -7.17775872	      0.06513700	      0.00077405	     -0.00730790	      0.05466276	      0.04197097	     -0.18919621	      0.00000000	      5.72963693	      0.19351544	    -12.45318767	      0.00000000	      0.00000000	      0.00000000	      0.00000000	      0.00000000	      0.00000000	      0.00000000	     60.00000000	      0.00000000	      0.00000000	      0.00000000	      0.00000000	      0.00000000	     60.00000000	      0.00000000
      5.51600000	    -10.80945943	     -2.21254526	      8.47022194	      1.08169955	      0.87434992	      0.21722305	     11.26850598	      0.13411272	    -12.23741534	      0.00000000	      0.00000000	      0.00000000	      0.00092502	      0.00008727	      0.00006981	      5.60216679	      0.00002399	      0.00008861	     -0.00000155	     -0.00001176	     -0.00000198	      9.21298202	     -2.60454353	      0.00000000	     12.90887844	     -0.93661558	     -7.17771274	      0.06513700	      0.00077405	     -0.00730790	      0.05466263	      0.04197093	     -0.18919626	      0.00000000	      5.72965116	      0.19350643	    -12.45318746	      0.00000000	      0.00000000	      0.00000000	      0.00000000	      0.00000000	      0.00000000	      0.00000000	     60.00000000	      0.00000000	      0.00000000	      0.00000000	      0.00000000	      0.00000000	     60.00000000	      0.00000000
      5.52000000	    -10.80897205	     -2.21197186	      8.47025277	      1.08168603	      0.87435011	      0.21723054	     11.26866613	      0.13418810	    -12.23743781	      0.00000000	      0.00000000	      0.00000000	      0.00092502	      0.00008727	      0.00006981	      5.60209549	      0.00002392	      0.00008891	     -0.00000155	     -0.00001176	     -0.00000197	      9.21295939	     -2.60450181	      0.00000000	     12.90919312	     -0.93635615	     -7.17749672	      0.06513700	      0.00077405	     -0.00730790	      0.05465845	      0.04197062	     -0.18919661	      0.00000000	      5.72974911	      0.19351452	    -12.45316805	      0.00000000	      0.00000000	      0.00000000	      0.00000000	      0.00000000	      0.00000000	      0.00000000	     60.00000000	      0.00000000	      0.00000000	      0.00000000	      0.00000000	      0.00000000	     60.00000000	      0.00000000
      5.52400000	    -10.80849555	     -2.21162290	      8.47018325	      1.08167037	      0.87435169	      0.21723530	     11.26920745	      0.13407934	    -12.23749330	      0.00000000	      0.00000000	      0.00000000	      0.00092502	      0.00008727	      0.00006981	      5.60192070	      0.00002381	      0.00008883	     -0.00000155	     -0.00001175	     -0.00000197	      9.21289651	     -2.60442801	      0.00000000	     12.90940010	     -0.93610130	     -7.17722111	      0.06513700	      0.00077405	     -0.00730790	      0.05465461	      0.04197015	     -0.18919688	      0.00000000	      5.72964231	      0.19351649	    -12.45319106	      0.00000000	      0.00000000	      0.00000000	      0.00000000	      0.00000000	      0.00000000	      0.00000000	     60.00000000	      0.00000000	      0.00000000	      0.00000000	      0.00000000	      0.00000000	     60.00000000	      0.00000000
      5.52800000	    -10.80825209	     -2.21125229	      8.46995606	      1.08165310	      0.87434848	      0.21724015	     11.26978413	      0.13368658	    -12.23744672	      0.00000000	      0.00000000	      0.00000000	      0.00092502	      0.00008727	      0.00006981	      5.60161801	      0.00002432	      0.00008837	     -0.00000155	     -0.00001176	     -0.00000199	      9.21281747	     -2.60434014	      0.00000000	     12.90965056	     -0.93571362	     -7.17696870	      0.06513700	      0.00077405	     -0.00730790	      0.05465108	      0.04196977	     -0.18919701	      0.00000000	      5.72923333	      0.19356167	    -12.45326789	      0.00000000	      0.00000000	      0.00000000	      0.00000000	      0.00000000	      0.00000000	      0.00000000	     60.00000000	      0.00000000	      0.00000000	      0.00000000	      0.00000000	      0.00000000	     60.00000000	      0.00000000
      5.53200000	    -10.80987682	     -2.21069625	      8.46784905	      1.08163882	      0.87434772	      0.21724746	     11.27246331	      0.13348818	    -12.23683571	      0.00000000	      0.00000000	      0.00000000	      0.00092502	      0.00008727	      0.00006981	      5.60099472	      0.00002418	      0.00008918	     -0.00000156	     -0.00001176	     -0.00000199	      9.21204899	     -2.60338918	      0.00000000	     12.91152621	     -0.93603478	     -7.17399081	      0.06513700	      0.00077405	     -0.00730790	      0.05462398	      0.04196568	     -0.18919776	      0.00000000	      5.72403945	      0.19311942	    -12.45357263	      0.00000000	      0.00000000	      0.00000000	      0.00000000	      0.00000000	      0.00000000	      0.00000000	     60.00000000	      0.00000000	      0.00000000	      0.00000000	      0.00000000	      0.00000000	     60.00000000	      0.00000000
      5.53600000	    -10.80962849	     -2.21010453	      8.46808078	      1.08162347	      0.87434692	      0.21725416	     11.27277966	      0.13348121	    -12.23675304	      0.00000000	      0.00000000	      0.00000000	      0.00092502	      0.00008727	      0.00006981	      5.60074449	      0.00002427	      0.00008890	     -0.00000154	     -0.00001176	     -0.00000199	      9.21198590	     -2.60330669	      0.00000000	     12.91162973	     -0.93564289	     -7.17387820	      0.06513700	      0.00077405	     -0.00730790	      0.05462419	      0.04196488	     -0.18919739	      0.00000000	      5.72396527	      0.19316507	    -12.45349437	      0.00000000	      0.00000000	      0.00000000	      0.00000000	      0.00000000	      0.00000000	      0.00000000	     60.00000000	      0.00000000	      0.00000000	      0.00000000	      0.00000000	      0.00000000	     60.00000000	      0.00000000
      5.54000000	    -10.81111519	     -2.21084837	      8.47134195	      1.08160002	      0.87434567	      0.21725748	     11.27483761	      0.13435634	    -12.23642420	      0.00000000	      0.00000000	      0.00000000	      0.00092502	      0.00008727	      0.00006981	      5.59887343	      0.00002421	      0.00008893	     -0.00000155	     -0.00001175	     -0.00000199	      9.21117044	     -2.60240185	      0.00000000	     12.91496167	     -0.93467984	     -7.17252718	      0.06513700	      0.00077405	     -0.00730790	      0.05460242	      0.04195032	     -0.18918851	      0.00000000	      5.71893044	      0.19252437	    -12.45222020	      0.00000000	      0.00000000	      0.00000000	      0.00000000	      0.00000000	      0.00000000	      0.00000000	     60.00000000	      0.00000000	      0.00000000	      0.00000000	      0.00000000	      0.00000000	     60.00000000	      0.00000000
      5.54400000	    -10.81137216	     -2.21040812	      8.47151979	      1.08159726	      0.87434763	      0.21726526	     11.27471708	      0.13429689	    -12.23640623	      0.00000000	      0.00000000	      0.00000000	      0.00092502	      0.00008727	      0.00006981	      5.59870064	      0.00002436	      0.00008873	     -0.00000154	     -0.00001176	     -0.00000199	      9.21110634	     -2.60234029	      0.00000000	     12.91512691	     -0.93422398	     -7.17242377	      0.06513700	      0.00077405	     -0.00730790	      0.05460287	      0.04194904	     -0.18918742	      0.00000000	      5.71880930	      0.19263216	    -12.45212638	      0.00000000	      0.00000000	      0.00000000	      0.00000000	      0.00000000	      0.00000000	      0.00000000	     60.00000000	      0.00000000	      0.00000000	      0.00000000	      0.00000000	      0.00000000	     60.00000000	      0.00000000
